<?xml version="1.0" encoding="utf-8"?>
<!-- Generator: Adobe Illustrator 16.0.0, SVG Export Plug-In . SVG Version: 6.00 Build 0)  -->
<!DOCTYPE svg PUBLIC "-//W3C//DTD SVG 1.1//EN" "http://www.w3.org/Graphics/SVG/1.1/DTD/svg11.dtd">
<svg version="1.1" id="Layer_1" xmlns="http://www.w3.org/2000/svg" xmlns:xlink="http://www.w3.org/1999/xlink" x="0px" y="0px"
	 width="426.622px" height="424px" viewBox="0 193.5 426.622 424" enable-background="new 0 193.5 426.622 424"
	 xml:space="preserve">
<linearGradient id="SVGID_1_" gradientUnits="userSpaceOnUse" x1="536.7568" y1="-196.9258" x2="536.7568" y2="-105.3117" gradientTransform="matrix(1 0 0 -1 -270 395)">
	<stop  offset="0" style="stop-color:#D7D6D6;stop-opacity:0"/>
	<stop  offset="1" style="stop-color:#000000;stop-opacity:0.9"/>
</linearGradient>
<polygon fill="url(#SVGID_1_)" points="150.851,535.249 278.247,535.249 382.66,595.385 197.752,595.5 "/>
<path fill="#333333" d="M122.275,301.885l28.576,233.364c0,0,64.677,22.276,127.396,0l25.412-233.364H122.275z"/>
<g>
	<path fill="#333333" stroke="#FFFFFF" stroke-width="2" stroke-miterlimit="10" d="M112.562,309.487c0,0,95.548-8.53,201.037,0
		l-6.099-7.603c0,0,9.938-8.16-3.841-8.715l-2.372-17.431c0,0-88.66-12.238-176.529,0l-2.483,17.986c0,0-11.068,0.926-4.519,6.86
		L112.562,309.487z"/>
	<path fill="#EB6A23" d="M123.195,294.645l2.483-17.986c87.871-12.237,176.528,0,176.528,0l2.371,17.43
		C304.578,294.089,224.341,288.319,123.195,294.645z"/>
	<path fill="#EB6A23" d="M118.352,301.103l-4.204,7.292c0,0,117.194-7.16,197.529,0.131l-5.189-6.635
		C306.486,301.891,264.118,295.322,118.352,301.103z"/>
</g>
<g>
	<g>
		<defs>
			<rect id="SVGID_2_" x="213.334" y="300.825" width="106.305" height="269.397"/>
		</defs>
		<clipPath id="SVGID_3_">
			<use xlink:href="#SVGID_2_"  overflow="visible"/>
		</clipPath>
		<path clip-path="url(#SVGID_3_)" fill="#222222" d="M122.275,301.885l28.576,233.364c0,0,69.788,22.161,127.396,0l25.412-233.364
			H122.275z"/>
	</g>
</g>
<path fill="#EDC11B" d="M124.759,341.195c0,0,81.997-7.509,176.529,0L291.8,453.286c0,0-64.729,19.75-154.842,0L124.759,341.195z"/>
<g>
	<g>
		<defs>
			<rect id="SVGID_4_" x="212.988" y="326.103" width="110.113" height="144.048"/>
		</defs>
		<clipPath id="SVGID_5_">
			<use xlink:href="#SVGID_4_"  overflow="visible"/>
		</clipPath>
		<path clip-path="url(#SVGID_5_)" fill="#E2A400" d="M124.759,341.195c0,0,81.997-7.509,176.529,0L291.8,453.286
			c0,0-62.851,19.635-154.842,0L124.759,341.195z"/>
	</g>
</g>
<g>
	<polygon fill="#FFFFFF" points="211.557,411.887 211.461,399.044 195.309,399.164 195.405,412.007 189.263,412.054 189.03,380.783 
		195.172,380.737 195.266,393.648 211.42,393.527 211.323,380.616 217.465,380.571 217.698,411.84 	"/>
	<polygon fill="#FFFFFF" points="222.486,411.805 232.653,380.457 237.753,380.419 227.611,411.766 	"/>
	<polygon fill="#FFFFFF" points="164.809,396.402 184.243,380.817 184.289,386.862 172.494,396.345 184.431,406.044 
		184.477,412.089 	"/>
	<polygon fill="#FFFFFF" points="262.208,396.068 242.773,411.653 242.728,405.608 254.521,396.126 242.585,386.427 
		242.539,380.382 	"/>
</g>
<g>
	<g>
		<defs>
			<rect id="SVGID_6_" x="212.988" y="259.965" width="110.113" height="59.212"/>
		</defs>
		<clipPath id="SVGID_7_">
			<use xlink:href="#SVGID_6_"  overflow="visible"/>
		</clipPath>
		<path clip-path="url(#SVGID_7_)" fill="#222222" stroke="#FFFFFF" stroke-width="2" stroke-miterlimit="10" d="M112.562,309.487
			c0,0,95.548-8.53,201.037,0l-6.099-7.603c0,0,9.938-8.16-3.841-8.715l-2.372-17.431c0,0-88.66-12.238-176.529,0l-2.483,17.986
			c0,0-11.068,0.926-4.519,6.86L112.562,309.487z"/>
	</g>
	<g>
		<defs>
			<rect id="SVGID_8_" x="212.988" y="259.965" width="110.113" height="59.212"/>
		</defs>
		<clipPath id="SVGID_9_">
			<use xlink:href="#SVGID_8_"  overflow="visible"/>
		</clipPath>
		<path clip-path="url(#SVGID_9_)" fill="#E15312" d="M123.195,294.645l2.483-17.986c87.871-12.237,176.528,0,176.528,0l2.371,17.43
			C304.578,294.089,224.341,288.319,123.195,294.645z"/>
	</g>
	<g>
		<defs>
			<rect id="SVGID_10_" x="212.988" y="259.965" width="110.113" height="59.212"/>
		</defs>
		<clipPath id="SVGID_11_">
			<use xlink:href="#SVGID_10_"  overflow="visible"/>
		</clipPath>
		<path clip-path="url(#SVGID_11_)" fill="#E15312" d="M118.352,301.103l-4.204,7.292c0,0,117.194-7.16,197.529,0.131l-5.189-6.635
			C306.486,301.891,264.118,295.322,118.352,301.103z"/>
	</g>
</g>
<linearGradient id="SVGID_12_" gradientUnits="userSpaceOnUse" x1="454.001" y1="228.1528" x2="454.001" y2="127.4125" gradientTransform="matrix(1 0 0 -1 -270 395)">
	<stop  offset="0" style="stop-color:#A3CAE7;stop-opacity:0.8182"/>
	<stop  offset="1" style="stop-color:#98C7EB"/>
</linearGradient>
<path fill="url(#SVGID_12_)" d="M188.098,268.327c0,0,21.781-22.374-4-38.228c-25.782-15.854-23.266-26.078-23.266-26.078
	l24.448-0.444c0,0-8.743,7.854,8.89,20.892c17.633,13.039,16.001,33.189,3.556,44.154L188.098,268.327z"/>
</svg>
